<svg width="21" height="21" viewBox="0 0 21 21" fill="none" xmlns="http://www.w3.org/2000/svg">
<path fill-rule="evenodd" clip-rule="evenodd" d="M10.0979 20.4384C15.6208 20.4384 20.0979 15.9612 20.0979 10.4384C20.0979 4.91552 15.6208 0.43837 10.0979 0.43837C4.57508 0.43837 0.0979309 4.91552 0.0979309 10.4384C0.0979309 15.9612 4.57508 20.4384 10.0979 20.4384ZM11.0979 6.43837C11.0979 5.88609 10.6502 5.43837 10.0979 5.43837C9.54565 5.43837 9.09793 5.88609 9.09793 6.43837V9.43837H6.09793C5.54565 9.43837 5.09793 9.88608 5.09793 10.4384C5.09793 10.9907 5.54565 11.4384 6.09793 11.4384H9.09793V14.4384C9.09793 14.9907 9.54565 15.4384 10.0979 15.4384C10.6502 15.4384 11.0979 14.9907 11.0979 14.4384V11.4384H14.0979C14.6502 11.4384 15.0979 10.9907 15.0979 10.4384C15.0979 9.88608 14.6502 9.43837 14.0979 9.43837H11.0979V6.43837Z" fill="white"/>
</svg>
