<svg width="80" height="90" viewBox="0 0 80 90" fill="none" xmlns="http://www.w3.org/2000/svg">
<path d="M17.0313 0.787048C13.8731 0.787048 11.0402 1.43783 9.1281 2.39486C7.23318 3.35189 6.50583 4.42377 6.50583 5.18939C6.50583 5.93588 7.23318 7.02881 9.1281 7.96478C11.0402 8.92181 13.8731 9.59174 17.0313 9.59174C20.1895 9.59174 23.0223 8.92181 24.9172 7.96478C26.8313 7.02881 27.5586 5.93588 27.5586 5.18939C27.5586 4.42377 26.8313 3.35189 24.9172 2.39486C23.0223 1.43783 20.1895 0.787048 17.0313 0.787048ZM47.6563 6.91205C44.4981 6.91205 41.6652 7.56283 39.7703 8.51986C37.8563 9.47689 37.1289 10.5488 37.1289 11.3144C37.1289 12.0609 37.8563 13.1538 39.7703 14.0898C41.6652 15.0468 44.4981 15.7148 47.6563 15.7148C48.5367 15.7148 49.3789 15.6574 50.1828 15.5617C51.0059 14.5109 52.1735 13.5787 53.5324 12.9586C55.102 12.2504 56.9203 11.6762 58.1836 11.3144C58.1836 10.5488 57.4563 9.47689 55.5422 8.51986C53.6473 7.56283 50.8145 6.91205 47.6563 6.91205ZM6.50583 10.432C6.42927 13.238 9.4688 14.3826 11.3848 14.9492C14.8109 15.9445 19.2516 15.9445 22.6777 14.9492C25.1277 14.2486 27.5395 12.8973 27.5586 10.432C24.477 12.4667 19.9789 13.0141 17.0313 13.0351C13.2988 12.7231 9.37884 12.3365 6.50583 10.432ZM62.9688 14.4343C59.8106 14.4343 56.9777 15.0851 55.0828 16.0594C53.1688 16.9972 52.4414 18.0883 52.4414 18.8347C52.4414 19.6004 53.1688 20.6722 55.0828 21.6293C56.9777 22.5863 59.8106 23.2371 62.9688 23.2371C66.127 23.2371 68.9598 22.5863 70.8547 21.6293C72.7688 20.6722 73.4961 19.6004 73.4961 18.8347C73.4961 18.0883 72.7688 16.9972 70.8547 16.0594C68.9598 15.0851 66.127 14.4343 62.9688 14.4343ZM37.1289 16.557V17.0164C37.684 17.2078 38.2199 17.4375 38.7176 17.6863C40.4402 18.5476 41.9332 19.7535 42.6988 21.2656C44.6512 21.7441 46.8524 21.9164 48.9961 21.7824V19.1219C48.5559 19.141 48.1156 19.1601 47.6563 19.1601C44.0387 19.1601 40.7465 18.4519 38.2199 17.1886C37.8371 16.9972 37.4734 16.7867 37.1289 16.557ZM6.50583 16.5761C6.44075 19.3707 9.47646 20.5191 11.3848 21.0933C12.6863 21.457 14.141 21.7058 15.634 21.7824C16.0168 20.7871 16.7059 19.9066 17.5863 19.1601C15.1363 19.2176 12.6672 18.9113 10.4277 18.2797C8.93669 17.8394 7.61599 17.2844 6.50583 16.5761ZM29.2813 19.1601C26.1231 19.1601 23.2902 19.8301 21.3953 20.7679C19.4813 21.725 18.7539 22.7969 18.7539 23.5625C18.7539 24.3281 19.4813 25.4 21.3953 26.357C23.2902 27.314 26.1231 27.9648 29.2813 27.9648C32.4395 27.9648 35.2723 27.314 37.1672 26.357C39.0813 25.4 39.8086 24.3281 39.8086 23.5625C39.8086 22.7969 39.0813 21.725 37.1672 20.7679C35.2723 19.8301 32.4395 19.1601 29.2813 19.1601ZM6.50583 22.7011C6.44075 25.4957 9.47646 26.6441 11.3848 27.2183C12.5906 27.5629 13.9305 27.7926 15.3086 27.8883V25.2469C13.6242 25.132 11.9781 24.8449 10.4277 24.4047C8.93669 23.9644 7.61599 23.4094 6.50583 22.7011ZM52.4414 24.0984C52.4031 26.9121 55.3891 28.0414 57.3223 28.6156C60.7485 29.6109 65.1891 29.6109 68.6152 28.6156C71.0461 27.9074 73.477 26.5676 73.4961 24.0984C73.1516 24.309 72.7879 24.5195 72.4051 24.7109C69.8785 25.9742 66.5863 26.6824 62.9688 26.6824C59.3512 26.6824 56.059 25.9742 53.5324 24.7109C53.1496 24.5195 52.786 24.309 52.4414 24.0984ZM43.2539 24.9023V27.5246C45.0531 27.8883 47.0629 28.0222 48.9961 27.9074V25.266C47.0629 25.3617 45.1106 25.2469 43.2539 24.9023ZM18.7539 28.807C18.6582 29.9554 19.175 30.8933 19.8067 31.4484C20.6106 32.1375 21.9121 32.8457 23.6348 33.3433C27.0609 34.3195 31.5016 34.3195 34.9277 33.3433C36.6504 32.8457 37.952 32.1375 38.7559 31.4484C39.6938 30.6637 39.8086 29.898 39.8086 28.807C39.4641 29.0367 39.1004 29.2472 38.7176 29.4387C36.191 30.7019 32.8988 31.4101 29.2813 31.4101C25.6637 31.4101 22.3715 30.7019 19.8449 29.4387C19.4621 29.2472 19.0984 29.0367 18.7539 28.807ZM6.50583 28.8262C6.44075 31.6207 9.47646 32.7691 11.3848 33.3433C12.5906 33.6879 13.9305 33.9176 15.3086 34.0133V31.3719C13.6242 31.257 11.9781 30.9699 10.4277 30.5297C8.93669 30.0894 7.61599 29.5344 6.50583 28.8262ZM52.4414 30.2234C52.4031 33.0371 55.3891 34.1664 57.3223 34.7406C60.7485 35.7359 65.1891 35.7359 68.6152 34.7406C71.0461 34.0324 73.477 32.6926 73.4961 30.2234C72.386 30.9316 71.0652 31.4867 69.5723 31.9269C65.4188 33.1328 60.5188 33.1328 56.3652 31.9269C54.8723 31.4867 53.5516 30.9316 52.4414 30.2234ZM43.2539 31.0273V33.6496C45.0531 34.0133 47.0629 34.1472 48.9961 34.0324V31.391C47.0629 31.4867 45.1106 31.3719 43.2539 31.0273ZM6.50583 34.9512C6.44075 37.7457 9.47646 38.8941 11.3848 39.4683C12.5906 39.8129 13.9305 40.0426 15.3086 40.1383V37.4969C13.6242 37.382 11.9781 37.0949 10.4277 36.6547C8.93669 36.2144 7.61599 35.6594 6.50583 34.9512ZM18.7539 34.9512C18.6582 36.0996 19.175 37.0183 19.8067 37.5734C20.6106 38.2625 21.9121 38.9707 23.6348 39.4683C27.0609 40.4445 31.5016 40.4445 34.9277 39.4683C36.6504 38.9707 37.952 38.2625 38.7559 37.5734C39.6938 36.7887 39.8086 36.0422 39.8086 34.9512C38.6984 35.6594 37.3777 36.2144 35.8848 36.6547C31.7313 37.8414 26.8313 37.8414 22.6777 36.6547C21.1848 36.2144 19.8641 35.6594 18.7539 34.9512ZM52.4414 36.3484C52.4031 39.1621 55.3891 40.2914 57.3223 40.8656C60.7485 41.8609 65.1891 41.8609 68.6152 40.8656C71.0461 40.1574 73.477 38.8176 73.4961 36.3484C72.386 37.0566 71.0652 37.6117 69.5723 38.0519C65.4188 39.2578 60.5188 39.2578 56.3652 38.0519C54.8723 37.6117 53.5516 37.0566 52.4414 36.3484ZM43.2539 37.1523V39.7746C45.0531 40.1383 47.0629 40.2722 48.9961 40.1574V37.516C47.0629 37.6117 45.1106 37.4969 43.2539 37.1523ZM18.7539 41.0762V41.5164C19.309 41.7078 19.8449 41.9375 20.3426 42.1863C22.0652 43.0476 23.5582 44.2535 24.3238 45.7656C27.6352 46.5695 31.7313 46.5121 34.9277 45.5933C36.6504 45.0957 37.952 44.3875 38.7559 43.6984C39.6938 42.9137 39.8086 42.1672 39.8086 41.0762C38.6984 41.7844 37.3777 42.3394 35.8848 42.7797C31.7313 43.9664 26.8313 43.9664 22.6777 42.7797C21.1848 42.3394 19.8641 41.7844 18.7539 41.0762ZM52.4414 42.4734C52.4031 45.2871 55.3891 46.4164 57.3223 46.9906C60.7485 47.9859 65.1891 47.9859 68.6152 46.9906C71.0461 46.2824 73.477 44.9426 73.4961 42.4734C72.386 43.1816 71.0652 43.7367 69.5723 44.1769C65.4188 45.3828 60.5188 45.3828 56.3652 44.1769C54.8723 43.7367 53.5516 43.1816 52.4414 42.4734ZM43.2539 43.2773V45.8996C45.0531 46.2633 47.0629 46.3972 48.9961 46.2824V43.641C47.0629 43.7367 45.1106 43.6219 43.2539 43.2773ZM10.9063 43.6601C7.74997 43.6601 4.91716 44.3301 3.0031 45.2679C1.10818 46.225 0.380832 47.2969 0.380832 48.0625C0.380832 48.8281 1.10818 49.9 3.0031 50.857C4.91716 51.814 7.74997 52.4648 10.9063 52.4648C14.0645 52.4648 16.8973 51.814 18.7922 50.857C20.7063 49.9 21.4336 48.8281 21.4336 48.0625C21.4336 47.2969 20.7063 46.225 18.7922 45.2679C16.8973 44.3301 14.0645 43.6601 10.9063 43.6601ZM39.8086 47.2012C38.6984 47.9094 37.3777 48.4644 35.8848 48.9047C32.4395 49.8808 28.4965 50.0531 24.8789 49.4023V52.0246C28.0945 52.6945 31.9035 52.5797 34.9277 51.7183C37.3395 51.0101 39.7895 49.6511 39.8086 47.2012ZM52.4414 48.5984C52.384 51.3164 55.2551 52.484 57.15 53.0582C58.2219 52.1969 59.1981 51.5461 60.3465 51.0676C58.9684 50.9144 57.6285 50.6656 56.3652 50.3019C54.8723 49.8617 53.5516 49.3066 52.4414 48.5984ZM73.4961 48.5984C72.9602 48.9429 72.3668 49.2492 71.716 49.5363C72.3094 49.5937 72.9027 49.6703 73.4578 49.766C73.5344 49.3832 73.4961 49.0004 73.4961 48.5984ZM43.2539 49.4023V52.0054C45.3402 52.4074 47.082 52.5031 48.9961 52.4265V49.766C47.0629 49.8617 45.1106 49.7469 43.2539 49.4023ZM69.0938 52.8476C65.9356 52.8476 63.1027 53.5176 61.2078 54.4554C59.2938 55.4125 58.5664 56.4844 58.5664 57.25C58.5664 58.0156 59.2938 59.0875 61.2078 60.0445C63.1027 61.0015 65.9356 61.6523 69.0938 61.6523C72.252 61.6523 75.0848 61.0015 76.9797 60.0445C78.8938 59.0875 79.6211 58.0156 79.6211 57.25C79.6211 56.4844 78.8938 55.4125 76.9797 54.4554C75.0848 53.5176 72.252 52.8476 69.0938 52.8476ZM0.380832 53.307C0.325324 56.1398 3.31126 57.2691 5.26169 57.8433C8.68786 58.8195 13.1266 58.8195 16.5527 57.8433C18.9836 57.1351 21.4145 55.7761 21.4336 53.307C21.0891 53.5367 20.7254 53.7472 20.3426 53.9387C17.816 55.2019 14.5238 55.9101 10.9063 55.9101C7.15279 55.6039 3.27298 55.2211 0.380832 53.307ZM39.8086 53.3261C38.6984 54.0344 37.3777 54.5894 35.8848 55.0297C32.4395 56.0058 28.4965 56.1781 24.8789 55.5273V58.1496C28.0945 58.8195 31.9035 58.7047 34.9277 57.8433C37.3395 57.1351 39.7895 55.7761 39.8086 53.3261ZM52.4414 54.7234C52.3649 56.6949 53.9727 57.8051 55.0828 58.3793C55.0828 58.3793 55.102 58.3984 55.1211 58.3984V56.025C54.1258 55.6613 53.2262 55.2211 52.4414 54.7234ZM0.380832 59.4511C0.315754 62.2457 3.35146 63.3941 5.26169 63.9683C8.68786 64.9445 13.1266 64.9445 16.5527 63.9683C18.9645 63.2601 21.4145 61.9011 21.4336 59.4511C20.3235 60.1594 19.0027 60.7144 17.5098 61.1547C13.3563 62.3414 8.45818 62.3414 4.30466 61.1547C2.81169 60.7144 1.49099 60.1594 0.380832 59.4511ZM24.8789 61.6523V64.2554C25.8168 64.466 26.8313 64.6 27.884 64.6765C28.2668 63.6621 28.9559 62.7816 29.8363 62.0351C28.1711 62.0734 26.4867 61.9394 24.8789 61.6523ZM41.5313 62.0351C38.3731 62.0351 35.5402 62.7051 33.6453 63.6429C31.7313 64.6 31.0039 65.6719 31.0039 66.4375C31.0039 67.2031 31.7313 68.275 33.6453 69.232C35.5402 70.189 38.3731 70.8398 41.5313 70.8398C44.6895 70.8398 47.5223 70.189 49.4172 69.232C51.3313 68.275 52.0586 67.2031 52.0586 66.4375C52.0586 65.6719 51.3313 64.6 49.4172 63.6429C47.5223 62.7051 44.6895 62.0351 41.5313 62.0351ZM58.5664 62.4945C58.5473 65.3273 61.4758 66.4566 63.4473 67.0308C66.8735 68.007 71.3141 68.007 74.7402 67.0308C77.1711 66.3226 79.602 64.9636 79.6211 62.4945C76.5969 64.332 72.0223 65.0785 69.0938 65.0976C65.3422 64.7914 61.4567 64.4086 58.5664 62.4945ZM0.380832 65.5761C0.315754 68.3707 3.35146 69.5191 5.26169 70.0933C8.68786 71.0695 13.1266 71.0695 16.5527 70.0933C18.9645 69.3851 21.4145 68.0261 21.4336 65.5761C20.3235 66.2843 19.0027 66.8394 17.5098 67.2797C13.3563 68.4664 8.45818 68.4664 4.30466 67.2797C2.81169 66.8394 1.49099 66.2843 0.380832 65.5761ZM58.5664 68.6386C58.5281 71.4523 61.5141 72.5816 63.4473 73.1558C66.8735 74.132 71.3141 74.132 74.7402 73.1558C77.152 72.4476 79.602 71.0886 79.6211 68.6386C78.511 69.3468 77.1902 69.9019 75.6973 70.3422C71.5438 71.5289 66.6438 71.5289 62.4902 70.3422C60.9973 69.9019 59.6766 69.3468 58.5664 68.6386ZM31.0039 71.682C30.9082 72.8304 31.425 73.7683 32.0567 74.3234C32.8606 75.0125 34.1621 75.7207 35.8848 76.2183C39.311 77.1945 43.7516 77.1945 47.1777 76.2183C48.9004 75.7207 50.202 75.0125 51.0059 74.3234C51.8098 73.6344 52.0586 73.041 52.0586 72.5625V71.682C51.7141 71.9117 51.3504 72.1222 50.9676 72.3137C48.441 73.5769 45.1488 74.2851 41.5313 74.2851C37.9137 74.2851 34.6215 73.5769 32.0949 72.3137C31.7121 72.1222 31.3484 71.9117 31.0039 71.682ZM0.380832 71.7011C0.315754 74.4957 3.35146 75.6441 5.26169 76.2183C8.68786 77.1945 13.1266 77.1945 16.5527 76.2183C18.9645 75.5101 21.4145 74.1511 21.4336 71.7011C20.3235 72.4093 19.0027 72.9644 17.5098 73.4047C13.3563 74.5914 8.45818 74.5914 4.30466 73.4047C2.81169 72.9644 1.49099 72.4093 0.380832 71.7011ZM58.5664 74.7636C58.5281 77.5773 61.5141 78.7066 63.4473 79.2808C66.8735 80.257 71.3141 80.257 74.7402 79.2808C77.152 78.5726 79.602 77.2136 79.6211 74.7636C78.511 75.4718 77.1902 76.0269 75.6973 76.4672C71.5438 77.6539 66.6438 77.6539 62.4902 76.4672C60.9973 76.0269 59.6766 75.4718 58.5664 74.7636ZM0.380832 77.8261C0.315754 80.6207 3.35146 81.7691 5.26169 82.3433C8.68786 83.3195 13.1266 83.3195 16.5527 82.3433C18.9645 81.6351 21.4145 80.2761 21.4336 77.8261C20.3235 78.5343 19.0027 79.0894 17.5098 79.5297C13.3563 80.7164 8.45818 80.7164 4.30466 79.5297C2.81169 79.0894 1.49099 78.5343 0.380832 77.8261ZM31.0039 77.8261C30.9274 79.7976 32.5352 80.9078 33.6453 81.482C35.5402 82.439 38.3731 83.0898 41.5313 83.0898C44.6895 83.0898 47.5223 82.439 49.4172 81.482C51.3121 80.2953 52.0586 79.8359 52.0586 77.8261C50.9485 78.5343 49.6277 79.0894 48.1348 79.5297C43.9813 80.7164 39.0813 80.7164 34.9277 79.5297C33.4348 79.0894 32.1141 78.5343 31.0039 77.8261ZM58.5664 80.8886C58.4899 82.8601 60.0977 83.9703 61.2078 84.5445C63.1027 85.5015 65.9356 86.1523 69.0938 86.1523C72.252 86.1523 75.0848 85.5015 76.9797 84.5445C78.8746 83.3578 79.6211 82.8984 79.6211 80.8886C78.511 81.5968 77.1902 82.1519 75.6973 82.5922C71.5438 83.7789 66.6438 83.7789 62.4902 82.5922C60.9973 82.1519 59.6766 81.5968 58.5664 80.8886ZM0.380832 83.9511C0.296613 85.9035 1.88911 87.0328 3.0031 87.607C4.91716 88.564 7.74997 89.2148 10.9063 89.2148C14.0645 89.2148 16.8973 88.564 18.7922 87.607C20.6871 86.4203 21.4336 85.9609 21.4336 83.9511C20.3235 84.6593 19.0027 85.2144 17.5098 85.6547C13.3563 86.8414 8.45818 86.8414 4.30466 85.6547C2.81169 85.2144 1.49099 84.6593 0.380832 83.9511Z" fill="white"/>
</svg>
