<svg width="24" height="24" viewBox="0 0 24 24" fill="none" xmlns="http://www.w3.org/2000/svg">
<path d="M13.5 14.7825C14.6757 14.0503 15.5809 12.955 16.0787 11.6624C16.5765 10.3698 16.6398 8.95031 16.259 7.61858C15.8782 6.28684 15.074 5.11537 13.9681 4.28138C12.8622 3.44739 11.5148 2.99628 10.1297 2.99628C8.74455 2.99628 7.39712 3.44739 6.29122 4.28138C5.18533 5.11537 4.38114 6.28684 4.00033 7.61858C3.61952 8.95031 3.6828 10.3698 4.1806 11.6624C4.6784 12.955 5.58363 14.0503 6.75935 14.7825C4.82341 15.4163 3.08153 16.6003 1.68091 18.2672C1.61528 18.3423 1.56528 18.4296 1.53381 18.5242C1.50235 18.6188 1.49006 18.7187 1.49767 18.8181C1.50527 18.9175 1.53262 19.0144 1.57811 19.1031C1.62359 19.1918 1.68631 19.2706 1.76258 19.3348C1.83886 19.399 1.92717 19.4473 2.02235 19.477C2.11752 19.5066 2.21766 19.517 2.31689 19.5075C2.41613 19.498 2.51248 19.4688 2.60031 19.4217C2.68814 19.3745 2.76568 19.3103 2.82841 19.2328C4.71091 16.9866 7.30403 15.75 10.125 15.75C12.9459 15.75 15.539 16.9866 17.4253 19.2328C17.5533 19.3853 17.7367 19.4806 17.935 19.4978C18.1333 19.515 18.3304 19.4528 18.4828 19.3247C18.6352 19.1967 18.7305 19.0133 18.7477 18.815C18.765 18.6167 18.7027 18.4196 18.5747 18.2672C17.1731 16.6003 15.4312 15.4163 13.5 14.7825ZM5.24997 9.37503C5.24997 8.41084 5.53588 7.46831 6.07156 6.66662C6.60723 5.86493 7.3686 5.24009 8.25939 4.87111C9.15018 4.50214 10.1304 4.40559 11.076 4.5937C12.0217 4.7818 12.8903 5.2461 13.5721 5.92788C14.2539 6.60966 14.7182 7.4783 14.9063 8.42396C15.0944 9.36962 14.9979 10.3498 14.6289 11.2406C14.2599 12.1314 13.6351 12.8928 12.8334 13.4284C12.0317 13.9641 11.0892 14.25 10.125 14.25C8.8325 14.2485 7.59339 13.7344 6.67947 12.8205C5.76555 11.9066 5.25146 10.6675 5.24997 9.37503Z" fill="#555FB4"/>
<path d="M18 9.00003H23V10H18V9.00003Z" fill="#555FB4"/>
<path d="M21 7.00003V12H20V7.00003H21Z" fill="#555FB4"/>
</svg>
