<svg width="24" height="24" viewBox="0 0 24 24" fill="none" xmlns="http://www.w3.org/2000/svg">
<path d="M4.59705 5.99345V18.5084C4.59705 20.1034 5.89008 21.3964 7.48511 21.3964H17.112C18.707 21.3964 20 20.1034 20 18.5084V8.88151C20 7.28648 18.707 5.99345 17.112 5.99345H4.59705ZM4.59705 5.99345V5.03076" stroke="#555FB4" stroke-width="1.44403"/>
<path d="M18.0746 5.99344V6.71545H18.7966V5.99344H18.0746ZM5.62812 6.71545H18.0746V5.27142H5.62812V6.71545ZM18.7966 5.99344V4.36267H17.3526V5.99344H18.7966ZM15.7749 1.74189L5.38019 3.22684L5.5844 4.65635L15.979 3.1714L15.7749 1.74189ZM5.38019 3.22684C4.51652 3.35022 3.875 4.0899 3.875 4.96233H5.31903C5.31903 4.80852 5.43214 4.67811 5.5844 4.65635L5.38019 3.22684ZM18.7966 4.36267C18.7966 2.7516 17.3697 1.51405 15.7749 1.74189L15.979 3.1714C16.704 3.06784 17.3526 3.63036 17.3526 4.36267H18.7966ZM5.62812 5.27142C5.45742 5.27142 5.31903 5.13304 5.31903 4.96233H3.875C3.875 5.93056 4.6599 6.71545 5.62812 6.71545V5.27142Z" fill="#555FB4"/>
<path d="M8.44775 11.7695H16.1492" stroke="#555FB4" stroke-width="1.44403" stroke-linecap="round"/>
<path d="M8.44775 15.139H13.7425" stroke="#555FB4" stroke-width="1.44403" stroke-linecap="round"/>
</svg>
