<svg width="24" height="24" viewBox="0 0 24 24" fill="none" xmlns="http://www.w3.org/2000/svg">
<path d="M19.3668 17.6602C19.8452 17.4981 20.1093 16.9545 19.9568 16.4462C19.8043 15.9378 19.2928 15.657 18.8145 15.8191L19.3668 17.6602ZM11.9754 17.0518C11.4736 17.0662 11.0777 17.5102 11.0913 18.0437C11.1049 18.577 11.5227 18.9977 12.0246 18.9833L11.9754 17.0518ZM18.2737 17.1533C18.4941 17.6327 19.0383 17.8316 19.4896 17.5976C19.9407 17.3634 20.1278 16.785 19.9076 16.3054L18.2737 17.1533ZM18.3154 15.0418L17.4816 15.4267C17.487 15.4398 17.4926 15.4528 17.4985 15.4657L18.3154 15.0418ZM17.1419 10.4455L18.0444 10.3291C18.0428 10.3151 18.0409 10.3012 18.0387 10.2873L17.1419 10.4455ZM12.0082 4.17835C11.5062 4.17835 11.0992 4.61092 11.0992 5.1445C11.0992 5.67809 11.5062 6.11066 12.0082 6.11066V4.17835ZM12.0082 6.11066C12.5103 6.11066 12.9173 5.67809 12.9173 5.1445C12.9173 4.61092 12.5103 4.17835 12.0082 4.17835V6.11066ZM6.85806 10.4467L5.96132 10.2882C5.95913 10.3022 5.95723 10.3163 5.95563 10.3303L6.85806 10.4467ZM5.68456 15.0418L6.50145 15.4657C6.50734 15.4528 6.51298 15.4398 6.51834 15.4267L5.68456 15.0418ZM4.09241 16.3054C3.87213 16.785 4.0593 17.3634 4.51046 17.5976C4.96162 17.8316 5.50592 17.6327 5.7262 17.1533L4.09241 16.3054ZM11.0992 5.1445C11.0992 5.67809 11.5062 6.11066 12.0082 6.11066C12.5103 6.11066 12.9173 5.67809 12.9173 5.1445H11.0992ZM12.9173 2.96615C12.9173 2.43257 12.5103 2 12.0082 2C11.5062 2 11.0992 2.43257 11.0992 2.96615H12.9173ZM11.0992 5.1445C11.0992 5.67809 11.5062 6.11066 12.0082 6.11066C12.5103 6.11066 12.9173 5.67809 12.9173 5.1445H11.0992ZM12.9173 2.96615C12.9173 2.43257 12.5103 2 12.0082 2C11.5062 2 11.0992 2.43257 11.0992 2.96615H12.9173ZM5.18542 15.8191C4.70708 15.657 4.19568 15.9378 4.04319 16.4462C3.8907 16.9545 4.15485 17.4981 4.63318 17.6602L5.18542 15.8191ZM11.9754 18.9833C12.4773 18.9977 12.8951 18.577 12.9087 18.0437C12.9223 17.5102 12.5264 17.0662 12.0246 17.0518L11.9754 18.9833ZM10.5455 17.8101C10.5455 17.2765 10.1385 16.844 9.63643 16.844C9.13436 16.844 8.72737 17.2765 8.72737 17.8101H10.5455ZM15.2785 17.8101C15.2785 17.2765 14.8715 16.844 14.3695 16.844C13.8674 16.844 13.4604 17.2765 13.4604 17.8101H15.2785ZM18.8145 15.8191C16.5973 16.5704 14.296 16.985 11.9754 17.0518L12.0246 18.9833C14.5164 18.9118 16.987 18.4665 19.3668 17.6602L18.8145 15.8191ZM19.9076 16.3054L19.1324 14.6178L17.4985 15.4657L18.2737 17.1533L19.9076 16.3054ZM19.1492 14.6569C18.5873 13.2821 18.2149 11.8237 18.0444 10.3291L16.2395 10.5618C16.4311 12.2408 16.8495 13.8802 17.4816 15.4267L19.1492 14.6569ZM18.0387 10.2873C17.7811 8.63828 17.2325 7.10774 16.236 5.97922C15.2151 4.82337 13.8022 4.17835 12.0082 4.17835V6.11066C13.3567 6.11066 14.2701 6.57672 14.9103 7.30164C15.5746 8.0539 16.0218 9.17384 16.2452 10.6037L18.0387 10.2873ZM12.0082 4.17835C10.2141 4.17835 8.79808 4.82305 7.7737 5.97783C6.77293 7.106 6.21984 8.63684 5.96132 10.2882L7.75479 10.6053C7.97846 9.17657 8.42869 8.05628 9.09659 7.30335C9.74089 6.57704 10.6589 6.11066 12.0082 6.11066V4.17835ZM5.95563 10.3303C5.78495 11.8245 5.41254 13.2825 4.85077 14.6569L6.51834 15.4267C7.15029 13.8807 7.56876 12.2417 7.7605 10.5632L5.95563 10.3303ZM4.86766 14.6178L4.09241 16.3054L5.7262 17.1533L6.50145 15.4657L4.86766 14.6178ZM12.9173 5.1445V2.96615H11.0992V5.1445H12.9173ZM12.9173 5.1445V2.96615H11.0992V5.1445H12.9173ZM4.63318 17.6602C7.01296 18.4665 9.48362 18.9118 11.9754 18.9833L12.0246 17.0518C9.704 16.985 7.40271 16.5704 5.18542 15.8191L4.63318 17.6602ZM8.72737 17.8101V18.4542H10.5455V17.8101H8.72737ZM8.72737 18.4542C8.72737 20.3894 10.1723 22 12.0029 22V20.0677C11.2195 20.0677 10.5455 19.3685 10.5455 18.4542H8.72737ZM12.0029 22C13.8335 22 15.2785 20.3894 15.2785 18.4542H13.4604C13.4604 19.3685 12.7863 20.0677 12.0029 20.0677V22ZM15.2785 18.4542V17.8101H13.4604V18.4542H15.2785Z" fill="#555FB4"/>
</svg>
