<svg width="21" height="21" viewBox="0 0 21 21" fill="none" xmlns="http://www.w3.org/2000/svg">
<path d="M10.5979 20.4384L10.3181 20.4345C4.92732 20.2862 0.5979 15.8648 0.5979 10.4384C0.5979 4.92837 5.0779 0.43837 10.5979 0.43837C16.1079 0.43837 20.5979 4.92837 20.5979 10.4384C20.5979 15.9584 16.1079 20.4384 10.5979 20.4384ZM8.6179 14.4384C8.9179 14.7384 9.3879 14.7384 9.6779 14.4384L13.1679 10.9684C13.3079 10.8284 13.3879 10.6384 13.3879 10.4384C13.3879 10.2384 13.3079 10.0484 13.1679 9.90837L9.6779 6.43837C9.5379 6.28837 9.3479 6.21837 9.1579 6.21837C8.9579 6.21837 8.7679 6.28837 8.6179 6.43837C8.3279 6.73837 8.3279 7.20837 8.6279 7.49837L11.5779 10.4384L8.6279 13.3784C8.3279 13.6684 8.3279 14.1484 8.6179 14.4384Z" fill="white"/>
</svg>
