<svg width="24" height="22" viewBox="0 0 24 22" fill="none" xmlns="http://www.w3.org/2000/svg">
<path d="M23.633 9.22609L12.633 0.226092C12.4544 0.0800359 12.2307 0.000244141 12 0.000244141C11.7693 0.000244141 11.5456 0.0800359 11.367 0.226092L0.367007 9.22609C0.166333 9.39541 0.0403005 9.63686 0.0161228 9.8983C-0.00805487 10.1597 0.0715622 10.4202 0.237783 10.6235C0.404004 10.8267 0.643492 10.9564 0.904536 10.9846C1.16558 11.0128 1.42724 10.9372 1.63301 10.7741L3.00001 9.65609V21.0001C3.00001 21.2653 3.10536 21.5197 3.2929 21.7072C3.48044 21.8947 3.73479 22.0001 4.00001 22.0001H10V16.0001H14V22.0001H20C20.2652 22.0001 20.5196 21.8947 20.7071 21.7072C20.8947 21.5197 21 21.2653 21 21.0001V9.65609L22.367 10.7741C22.4684 10.8596 22.5857 10.9241 22.7122 10.9638C22.8388 11.0036 22.9719 11.0178 23.104 11.0055C23.236 10.9933 23.3643 10.955 23.4814 10.8927C23.5985 10.8305 23.702 10.7455 23.786 10.6429C23.8699 10.5402 23.9326 10.4219 23.9704 10.2948C24.0082 10.1677 24.0203 10.0343 24.0061 9.90246C23.9919 9.77061 23.9515 9.64292 23.8875 9.5268C23.8234 9.41068 23.7369 9.30846 23.633 9.22609Z" fill="white"/>
</svg>
